<svg width="140" height="140" viewBox="0 0 140 140" fill="none" xmlns="http://www.w3.org/2000/svg">
<g clip-path="url(#clip0_2_261)">
<path d="M110 0H30C13.4315 0 0 13.4315 0 30V110C0 126.569 13.4315 140 30 140H110C126.569 140 140 126.569 140 110V30C140 13.4315 126.569 0 110 0Z" fill="#010326"/>
<g filter="url(#filter0_d_2_261)">
<path d="M52.0388 38.0987V46.0897H46.909V38.0987H52.0388ZM46.909 38.0987V46.0897H41.7791V38.0987H46.909ZM46.909 46.0897V54.0807H41.7791V46.0897H46.909ZM52.0388 46.0897V54.0807H46.909V46.0897H52.0388ZM41.7791 46.0897V54.0807H36.6493V46.0897H41.7791ZM36.6493 46.0897V54.0807H31.5194V46.0897H36.6493ZM41.7791 54.0807V62.0717H36.6493V54.0807H41.7791ZM36.6493 54.0807V62.0717H31.5194V54.0807H36.6493ZM31.5194 54.0807V62.0717H26.3896V54.0807H31.5194ZM26.3896 54.0807V62.0717H21.2597V54.0807H26.3896ZM26.3896 62.0717V70.0628H21.2597V62.0717H26.3896ZM31.5194 62.0717V70.0628H26.3896V62.0717H31.5194ZM21.2597 62.0717V70.0628H16.1299V62.0717H21.2597ZM16.1299 62.0717V70.0628H11V62.0717H16.1299ZM16.1299 70.0628V78.0538H11V70.0628H16.1299ZM21.2597 70.0628V78.0538H16.1299V70.0628H21.2597ZM21.2597 78.0538V86.0448H16.1299V78.0538H21.2597ZM16.1299 78.0538V86.0448H11V78.0538H16.1299ZM26.3896 78.0538V86.0448H21.2597V78.0538H26.3896ZM26.3896 70.0628V78.0538H21.2597V70.0628H26.3896ZM26.3896 86.0448V94.0359H21.2597V86.0448H26.3896ZM31.5194 86.0448V94.0359H26.3896V86.0448H31.5194ZM31.5194 78.0538V86.0448H26.3896V78.0538H31.5194ZM36.6493 86.0448V94.0359H31.5194V86.0448H36.6493ZM36.6493 94.0359V102.027H31.5194V94.0359H36.6493ZM41.7791 94.0359V102.027H36.6493V94.0359H41.7791ZM41.7791 86.0448V94.0359H36.6493V86.0448H41.7791ZM46.909 94.0359V102.027H41.7791V94.0359H46.909ZM52.0388 94.0359V102.027H46.909V94.0359H52.0388ZM52.0388 102.027V110.018H46.909V102.027H52.0388ZM41.7791 102.027H46.909V110.018H41.7791V102.027ZM36.6493 102.027H41.7791V110.018H36.6493V102.027ZM26.3896 94.0359H31.5194V102.027H26.3896V94.0359ZM16.1299 86.0448H21.2597V94.0359H16.1299V86.0448ZM36.6493 38.0987H41.7791V46.0897H36.6493V38.0987ZM26.3896 46.0897H31.5194V54.0807H26.3896V46.0897ZM16.1299 54.0807H21.2597V62.0717H16.1299V54.0807Z" fill="#6A66D9"/>
<path d="M77.7148 30.1076H82.8447V38.0987H77.7148V30.1076ZM77.7148 38.0987H82.8447V46.0897H77.7148V38.0987ZM72.585 38.0987H77.7148V46.0897H72.585V38.0987ZM72.585 30.1076H77.7148V38.0987H72.585V30.1076ZM77.7148 46.0897H82.8447V54.0807H77.7148V46.0897ZM72.585 46.0897H77.7148V54.0807H72.585V46.0897ZM72.585 54.0807H77.7148V62.0717H72.585V54.0807ZM72.585 62.0717H77.7148V70.0628H72.585V62.0717ZM72.585 70.0628H77.7148V78.0538H72.585V70.0628ZM67.4551 70.0628H72.585V78.0538H67.4551V70.0628ZM67.4551 62.0717H72.585V70.0628H67.4551V62.0717ZM67.4551 54.0807H72.585V62.0717H67.4551V54.0807ZM67.4551 78.0538H72.585V86.0448H67.4551V78.0538ZM67.4551 86.0448H72.585V94.0359H67.4551V86.0448ZM67.4551 94.0359H72.585V102.027H67.4551V94.0359ZM62.3253 94.0359H67.4551V102.027H62.3253V94.0359ZM62.3253 86.0448H67.4551V94.0359H62.3253V86.0448ZM62.3253 78.0538H67.4551V86.0448H62.3253V78.0538ZM62.3253 102.027H67.4551V110.018H62.3253V102.027ZM62.3253 110.018H67.4551V118.009H62.3253V110.018ZM62.3253 118.009H67.4551V126H62.3253V118.009ZM57.1954 118.009H62.3253V126H57.1954V118.009ZM57.1954 110.018H62.3253V118.009H57.1954V110.018ZM57.1954 102.027H62.3253V110.018H57.1954V102.027Z" fill="#6A66D9"/>
<path d="M87.9612 38.0987H93.091V46.0897H87.9612V38.0987ZM93.091 38.0987H98.2209V46.0897H93.091V38.0987ZM93.091 46.0897H98.2209V54.0807H93.091V46.0897ZM87.9612 46.0897H93.091V54.0807H87.9612V46.0897ZM98.2209 46.0897H103.351V54.0807H98.2209V46.0897ZM103.351 46.0897H108.481V54.0807H103.351V46.0897ZM98.2209 54.0807H103.351V62.0717H98.2209V54.0807ZM103.351 54.0807H108.481V62.0717H103.351V54.0807ZM108.481 54.0807H113.61V62.0717H108.481V54.0807ZM113.61 54.0807H118.74V62.0717H113.61V54.0807ZM113.61 62.0717H118.74V70.0628H113.61V62.0717ZM108.481 62.0717H113.61V70.0628H108.481V62.0717ZM118.74 62.0717H123.87V70.0628H118.74V62.0717ZM123.87 62.0717H129V70.0628H123.87V62.0717ZM123.87 70.0628H129V78.0538H123.87V70.0628ZM118.74 70.0628H123.87V78.0538H118.74V70.0628ZM118.74 78.0538H123.87V86.0448H118.74V78.0538ZM123.87 78.0538H129V86.0448H123.87V78.0538ZM113.61 78.0538H118.74V86.0448H113.61V78.0538ZM113.61 70.0628H118.74V78.0538H113.61V70.0628ZM113.61 86.0448H118.74V94.0359H113.61V86.0448ZM108.481 86.0448H113.61V94.0359H108.481V86.0448ZM108.481 78.0538H113.61V86.0448H108.481V78.0538ZM103.351 86.0448H108.481V94.0359H103.351V86.0448ZM103.351 94.0359H108.481V102.027H103.351V94.0359ZM98.2209 94.0359H103.351V102.027H98.2209V94.0359ZM98.2209 86.0448H103.351V94.0359H98.2209V86.0448ZM93.091 94.0359H98.2209V102.027H93.091V94.0359ZM87.9612 94.0359H93.091V102.027H87.9612V94.0359ZM87.9612 102.027H93.091V110.018H87.9612V102.027ZM93.091 102.027H98.2209V110.018H93.091V102.027ZM98.2209 102.027H103.351V110.018H98.2209V102.027ZM108.481 94.0359H113.61V102.027H108.481V94.0359ZM118.74 86.0448H123.87V94.0359H118.74V86.0448ZM98.2209 38.0987H103.351V46.0897H98.2209V38.0987ZM108.481 46.0897H113.61V54.0807H108.481V46.0897ZM118.74 54.0807H123.87V62.0717H118.74V54.0807Z" fill="#6A66D9"/>
<path d="M25.2496 27H30.3794V34.991H25.2496V27ZM20.1197 27H25.2496V34.991H20.1197V27ZM20.1197 34.991H25.2496V42.9821H20.1197V34.991ZM25.2496 34.991H30.3794V42.9821H25.2496V34.991ZM30.3794 34.991H35.5093V42.9821H30.3794V34.991ZM30.3794 27H35.5093V34.991H30.3794V27ZM35.5093 27H40.6392V34.991H35.5093V27ZM40.6392 27H45.769V34.991H40.6392V27ZM40.6392 34.991H45.769V42.9821H40.6392V34.991ZM35.5093 34.991H40.6392V42.9821H35.5093V34.991ZM40.6392 42.9821H45.769V50.9731H40.6392V42.9821ZM45.769 34.991H50.8989V42.9821H45.769V34.991ZM45.769 42.9821H50.8989V50.9731H45.769V42.9821ZM45.769 82.9372H50.8989V90.9283H45.769V82.9372ZM45.769 90.9283H50.8989V98.9193H45.769V90.9283ZM40.6392 90.9283H45.769V98.9193H40.6392V90.9283ZM40.6392 82.9372H45.769V90.9283H40.6392V82.9372ZM35.5093 90.9283H40.6392V98.9193H35.5093V90.9283ZM40.6392 98.9193H45.769V106.91H40.6392V98.9193ZM35.5093 98.9193H40.6392V106.91H35.5093V98.9193ZM30.3794 98.9193H35.5093V106.91H30.3794V98.9193ZM30.3794 90.9283H35.5093V98.9193H30.3794V90.9283ZM25.2496 98.9193H30.3794V106.91H25.2496V98.9193ZM20.1197 98.9193H25.2496V106.91H20.1197V98.9193ZM20.1197 90.9283H25.2496V98.9193H20.1197V90.9283ZM25.2496 90.9283H30.3794V98.9193H25.2496V90.9283ZM25.2496 82.9372H30.3794V90.9283H25.2496V82.9372ZM20.1197 82.9372H25.2496V90.9283H20.1197V82.9372ZM14.9899 90.9283H20.1197V98.9193H14.9899V90.9283ZM14.9899 82.9372H20.1197V90.9283H14.9899V82.9372ZM14.9899 74.9462H20.1197V82.9372H14.9899V74.9462ZM14.9899 66.9552H20.1197V74.9462H14.9899V66.9552ZM14.9899 58.9641H20.1197V66.9552H14.9899V58.9641ZM14.9899 50.9731H20.1197V58.9641H14.9899V50.9731ZM14.9899 42.9821H20.1197V50.9731H14.9899V42.9821ZM20.1197 42.9821H25.2496V50.9731H20.1197V42.9821ZM14.9899 34.991H20.1197V42.9821H14.9899V34.991ZM25.2496 42.9821H30.3794V50.9731H25.2496V42.9821ZM20.1197 50.9731H25.2496V58.9641H20.1197V50.9731ZM20.1197 58.9641H25.2496V66.9552H20.1197V58.9641ZM20.1197 66.9552H25.2496V74.9462H20.1197V66.9552ZM20.1197 74.9462H25.2496V82.9372H20.1197V74.9462Z" fill="white"/>
<path d="M76.5615 27H81.6913V34.991H76.5615V27ZM76.5615 34.991H81.6913V42.9821H76.5615V34.991ZM71.4316 34.991H76.5615V42.9821H71.4316V34.991ZM71.4316 27H76.5615V34.991H71.4316V27ZM76.5615 42.9821H81.6913V50.9731H76.5615V42.9821ZM71.4316 42.9821H76.5615V50.9731H71.4316V42.9821ZM71.4316 50.9731H76.5615V58.9641H71.4316V50.9731ZM71.4316 58.9641H76.5615V66.9552H71.4316V58.9641ZM71.4316 66.9552H76.5615V74.9462H71.4316V66.9552ZM66.3018 66.9552H71.4316V74.9462H66.3018V66.9552ZM66.3018 58.9641H71.4316V66.9552H66.3018V58.9641ZM66.3018 50.9731H71.4316V58.9641H66.3018V50.9731ZM66.3018 74.9462H71.4316V82.9372H66.3018V74.9462ZM66.3018 82.9372H71.4316V90.9283H66.3018V82.9372ZM66.3018 90.9283H71.4316V98.9193H66.3018V90.9283ZM61.1719 90.9283H66.3018V98.9193H61.1719V90.9283ZM61.1719 82.9372H66.3018V90.9283H61.1719V82.9372ZM61.1719 74.9462H66.3018V82.9372H61.1719V74.9462ZM61.1719 98.9193H66.3018V106.91H61.1719V98.9193ZM61.1719 106.91H66.3018V114.901H61.1719V106.91ZM61.1719 114.901H66.3018V122.892H61.1719V114.901ZM56.0421 114.901H61.1719V122.892H56.0421V114.901ZM56.0421 106.91H61.1719V114.901H56.0421V106.91ZM56.0421 98.9193H61.1719V106.91H56.0421V98.9193Z" fill="white"/>
<path d="M90.9402 36.5449V28.5538H85.8104V36.5449H90.9402Z" fill="white"/>
<path fill-rule="evenodd" clip-rule="evenodd" d="M111.46 28.5538H106.33H101.2H96.0701H90.9402V36.5449H85.8104V44.5359H90.9402H96.0701H101.2H106.33V52.5269H111.46V60.518V68.509V76.5V84.491H106.33V92.4821H101.2H96.0701V84.491H90.9402H85.8104V92.4821V100.473H90.9402V108.464H96.0701H101.2H106.33H111.46H116.589V100.473H121.719V92.4821V84.491V76.5V68.509V60.518V52.5269V44.5359V36.5449H116.589V28.5538H111.46Z" fill="white"/>
</g>
</g>
<defs>
<filter id="filter0_d_2_261" x="7" y="27" width="126" height="107" filterUnits="userSpaceOnUse" color-interpolation-filters="sRGB">
<feFlood flood-opacity="0" result="BackgroundImageFix"/>
<feColorMatrix in="SourceAlpha" type="matrix" values="0 0 0 0 0 0 0 0 0 0 0 0 0 0 0 0 0 0 127 0" result="hardAlpha"/>
<feOffset dy="4"/>
<feGaussianBlur stdDeviation="2"/>
<feComposite in2="hardAlpha" operator="out"/>
<feColorMatrix type="matrix" values="0 0 0 0 0 0 0 0 0 0 0 0 0 0 0 0 0 0 0.25 0"/>
<feBlend mode="normal" in2="BackgroundImageFix" result="effect1_dropShadow_2_261"/>
<feBlend mode="normal" in="SourceGraphic" in2="effect1_dropShadow_2_261" result="shape"/>
</filter>
<clipPath id="clip0_2_261">
<rect width="140" height="140" fill="white"/>
</clipPath>
</defs>
</svg>
