<svg width="101.1097508059839" height="165.38666381835935" viewBox="0 0 140 229">
<defs id="SvgjsDefs2593">
</defs>
<g id="SvgjsG2594" featurekey="rootContainer" transform="matrix(1,0,0,1,0,0)" fill="#e2f1ff">
<rect xmlns="http://www.w3.org/2000/svg" width="140" height="229" rx="10" ry="10">
</rect>
</g>
<g id="SvgjsG2595" featurekey="symbolFeature-0" transform="matrix(0.5156169533729553,0,0,0.5156169533729553,37.00051348972116,-3.8904236977691156)" fill="#f07ef2">
<path xmlns="http://www.w3.org/2000/svg" d="M74.313 0l-28.094 78h8.469l28.094-78h-8.469zm-36.313 11.25l-2.188 1.406-34 22-1.813 1.156v4.25l1.688 1.219 34 24 2.313 1.594v-9.781l-26.844-18.969 26.844-17.375v-9.5zm52 0v9.5l26.844 17.375-26.844 18.969v9.781l2.313-1.594 34-24 1.688-1.219v-4.25l-1.813-1.156-34-22-2.188-1.406z" transform="translate(0 25)">
</path>
</g>
<g id="SvgjsG2596" featurekey="nameFeature-0" transform="matrix(3.9339098930358887,0,0,3.9339098930358887,13.705746251219855,50.10228625203922)" fill="#6a66d9">
<path d="M1.6 23.16 c0 -11.16 0 -15.56 5.6 -15.56 c4.12 0 5.24 2.52 5.52 8.56 l-3.72 0 c-0.16 -4.36 -0.6 -5.36 -1.8 -5.36 c-1.84 0 -1.84 1.96 -1.84 12.36 c0 11.56 0 13.24 1.84 13.24 c1.32 0 1.72 -1 1.8 -6.16 l3.76 0 c-0.24 7.4 -1.24 10.16 -5.56 10.16 c-5.6 0 -5.6 -4.44 -5.6 -17.24 z M16.060000000000002 33.6 l3.92 0 c0.2 2.2 0.68 2.8 1.44 2.8 c1.6 0 1.6 -1.68 1.6 -13.24 l0 -11.96 l-3.04 0 l0 -3.2 l7.04 0 l0 15.16 c0 12.8 0 17.24 -5.6 17.24 c-3.52 0 -4.88 -1.92 -5.36 -6.8 z">
</path>
</g>
</svg>