<svg width="140" height="140" viewBox="0 0 140 140" fill="none" xmlns="http://www.w3.org/2000/svg">
<path d="M110 0H30C13.4315 0 0 13.4315 0 30V110C0 126.569 13.4315 140 30 140H110C126.569 140 140 126.569 140 110V30C140 13.4315 126.569 0 110 0Z" fill="#010326"/>
<path d="M29.6178 51.0769H35.7716V57.2308H29.6178V51.0769ZM35.7716 51.0769H41.9255V57.2308H35.7716V51.0769ZM41.9255 57.2308H48.0793V63.3846H41.9255V57.2308ZM23.4639 57.2308H29.6178V63.3846H23.4639V57.2308ZM23.4639 63.3846H29.6178V69.5385H23.4639V63.3846ZM23.4639 69.5385H29.6178V75.6923H23.4639V69.5385ZM23.4639 75.6923H29.6178V81.8462H23.4639V75.6923ZM17.3101 81.8462H23.4639V88H17.3101V81.8462ZM29.6178 81.8462H35.7716V88H29.6178V81.8462ZM35.7716 81.8462H41.9255V88H35.7716V81.8462ZM41.9255 75.6923H48.0793V81.8462H41.9255V75.6923Z" fill="white"/>
<path d="M78.8786 32.6154H85.0325V38.7692H78.8786V32.6154ZM78.8786 38.7692H85.0325V44.9231H78.8786V38.7692ZM72.7248 44.9231H78.8786V51.0769H72.7248V44.9231ZM72.7248 51.0769H78.8786V57.2308H72.7248V51.0769ZM66.5709 57.2308H72.7248V63.3846H66.5709V57.2308ZM66.5709 63.3846H72.7248V69.5385H66.5709V63.3846ZM60.4171 69.5385H66.5709V75.6923H60.4171V69.5385ZM60.4171 75.6923H66.5709V81.8462H60.4171V75.6923ZM54.2632 81.8462H60.4171V88H54.2632V81.8462ZM54.2632 88H60.4171V94.1538H54.2632V88Z" fill="white"/>
<path d="M103.524 75.6923H109.678V81.8462H103.524V75.6923ZM103.524 69.5385H109.678V75.6923H103.524V69.5385ZM103.524 63.3846H109.678V69.5385H103.524V63.3846ZM103.524 57.2308H109.678V63.3846H103.524V57.2308ZM97.3702 51.0769H103.524V57.2308H97.3702V51.0769ZM91.2163 57.2308H97.3702V63.3846H91.2163V57.2308ZM103.524 32.6154H109.678V38.7692H103.524V32.6154ZM109.678 51.0769H115.832V57.2308H109.678V51.0769ZM103.524 81.8462H109.678V88H103.524V81.8462ZM103.524 88H109.678V94.1538H103.524V88ZM103.524 94.1538H109.678V100.308H103.524V94.1538ZM97.3702 100.308H103.524V106.462H97.3702V100.308ZM91.2163 94.1538H97.3702V100.308H91.2163V94.1538Z" fill="white"/>
</svg>
